<?xml version="1.0" encoding="UTF-8"?>
<svg width="150px" height="48px" viewBox="0 0 150 48" version="1.1" xmlns="http://www.w3.org/2000/svg" xmlns:xlink="http://www.w3.org/1999/xlink">
    <!-- Generator: Sketch 49.1 (51147) - http://www.bohemiancoding.com/sketch -->
    <title>HKUST Logo</title>
    <desc>Created with Sketch.</desc>
    <defs></defs>
    <g id="Page-1" stroke="none" stroke-width="1" fill="none" fill-rule="evenodd">
        <g id="Mobile" transform="translate(-85.000000, -394.000000)" fill="#FFFFFF">
            <g id="HKUST-Logo" transform="translate(85.000000, 394.000000)">
                <path d="M55.3086103,18.6756346 L57.4121845,18.6756346 L57.4121845,36.9408158 L55.3086103,36.9408158 L55.3086103,28.5521722 L44.3546323,28.5521722 L44.3546323,36.9408158 L42.2767114,36.9408158 L42.2767114,18.6756346 L44.3546323,18.6756346 L44.3546323,26.7820914 L55.3086103,26.7820914 L55.3086103,18.6756346 Z M82.2446219,36.9408158 L79.499714,36.9408158 L70.0849367,28.2443321 L70.0849367,36.9408158 L67.9813624,36.9408158 L67.9813624,18.6756346 L70.0849367,18.6756346 L70.0849367,27.0642782 L79.0636072,18.6756346 L81.7572083,18.6756346 L72.2141642,27.5773451 L82.2446219,36.9408158 Z M97.1748683,37.1460425 C94.7805442,37.1460425 92.9720015,36.5260929 91.749186,35.2861751 C90.5263705,34.0462572 89.9149719,32.2120614 89.9149719,29.7835327 L89.9149719,18.6756346 L91.9928928,18.6756346 L91.9928928,29.9631061 C91.9928928,31.7417469 92.4289953,33.0842585 93.3012133,33.9906812 C94.1734314,34.8971039 95.4646368,35.3503084 97.1748683,35.3503084 C98.8679975,35.3503084 100.146376,34.8971039 101.010043,33.9906812 C101.87371,33.0842585 102.305537,31.7417469 102.305537,29.9631061 L102.305537,18.6756346 L104.409111,18.6756346 L104.409111,29.7835327 C104.409111,32.1949591 103.793437,34.0248794 102.562071,35.2733484 C101.330704,36.5218174 99.5349878,37.1460425 97.1748683,37.1460425 Z M120.647678,37.1460425 C117.791592,37.1460425 115.517018,36.3764499 113.823889,34.8372415 L114.619143,33.2210808 C115.525565,33.990685 116.449076,34.5379509 117.389704,34.8628949 C118.330331,35.1878389 119.424863,35.3503084 120.673332,35.3503084 C122.144131,35.3503084 123.277142,35.0638489 124.0724,34.4909214 C124.867658,33.9179938 125.26528,33.1099216 125.26528,32.0666804 C125.26528,31.450997 125.072882,30.9507618 124.68808,30.5659597 C124.303278,30.1811576 123.798767,29.8775961 123.174533,29.655266 C122.550298,29.4329359 121.716573,29.2020581 120.673332,28.9626257 C119.270942,28.654784 118.116553,28.3212939 117.21013,27.9621453 C116.303708,27.6029967 115.568319,27.0856594 115.003943,26.4101179 C114.439566,25.7345765 114.157382,24.849545 114.157382,23.7549968 C114.157382,22.7117556 114.431015,21.7925199 114.978289,20.9972623 C115.525563,20.2020046 116.299432,19.582055 117.299917,19.1373948 C118.300402,18.6927346 119.467618,18.4704079 120.801599,18.4704079 C122.06717,18.4704079 123.247212,18.6670816 124.34176,19.0604348 C125.436308,19.453788 126.359819,20.026707 127.112321,20.7792089 L126.291414,22.3953696 C125.436298,21.65997 124.568369,21.1212552 123.6876,20.7792089 C122.806831,20.4371626 121.84484,20.266142 120.801599,20.266142 C119.382106,20.266142 118.270473,20.5697035 117.466664,21.1768357 C116.662855,21.7839679 116.260957,22.6176932 116.260957,23.6780368 C116.260957,24.6015618 116.611549,25.2941952 117.312744,25.7559577 C118.013939,26.2177202 119.091368,26.6196185 120.545065,26.9616648 C122.118478,27.3379158 123.354102,27.6842325 124.251973,28.0006253 C125.149845,28.3170181 125.89806,28.7958757 126.496641,29.4372126 C127.095222,30.0785494 127.394508,30.9293768 127.394508,31.9897203 C127.394508,33.0158592 127.120875,33.9179928 126.573601,34.6961481 C126.026327,35.4743035 125.243908,36.077151 124.22632,36.5047089 C123.208732,36.9322668 122.015864,37.1460425 120.647678,37.1460425 Z M140.913821,36.9408158 L140.913821,20.4713687 L134.551791,20.4713687 L134.551791,18.6756346 L149.405077,18.6756346 L149.405077,20.4713687 L143.043048,20.4713687 L143.043048,36.9408158 L140.913821,36.9408158 Z" id="HKUST"></path>
                <g id="Symbol">
                    <path d="M21.8056633,9.75708916 C22.0307714,9.47522304 22.1096554,8.97402083 22.1096554,8.97402083 L8.60990367,8.97402083 C8.60990367,8.97402083 8.77632975,9.53198107 8.91774381,9.75708916 L21.8056633,9.75708916 Z" id="Fill-1"></path>
                    <path d="M21.022114,10.9041785 C21.2731961,10.6819564 21.5262022,10.2307782 21.5262022,10.2307782 L9.16834491,10.2307782 C9.16834491,10.2307782 9.30591097,10.5684403 9.6166371,10.9041785 L21.022114,10.9041785 Z" id="Fill-3"></path>
                    <path d="M20.0470304,11.9385213 C20.3539085,11.7749812 20.6021046,11.4344331 20.6021046,11.4344331 L10.0335681,11.4344331 C10.0335681,11.4344331 10.2865742,11.7134132 10.5347703,11.9385213 L20.0470304,11.9385213 Z" id="Fill-5"></path>
                    <path d="M18.8153812,12.9193769 C19.1164874,12.8039369 19.4579975,12.5249567 19.4579975,12.5249567 L11.21173,12.5249567 C11.21173,12.5249567 11.21173,12.5865248 11.7975882,12.9193769 L18.8153812,12.9193769 Z" id="Fill-7"></path>
                    <path d="M12.7445814,13.5309206 C12.7445814,13.5309206 13.6123058,14.0378948 15.3179325,14.0378948 C17.0254833,14.0378948 18.1135057,13.5309206 18.1135057,13.5309206 L12.7445814,13.5309206 Z" id="Fill-9"></path>
                    <path d="M12.6065344,14.6780099 C12.6065344,14.6780099 13.6406848,14.7347679 14.2554031,15.2080721 C14.8412613,15.7150463 15.2924395,16.5491007 15.2924395,16.5491007 C15.2924395,16.5491007 15.6531897,15.7429443 16.2419339,15.3235121 C16.8316402,14.8723339 17.7811346,14.6780099 17.7811346,14.6780099 L28.4343271,14.6780099 L30.531488,17.7843092 L20.9653559,17.7843092 C20.9653559,17.7843092 20.2948417,17.8122072 19.2885892,18.4009515 C18.756603,18.7030196 18.3641068,19.2378918 18.3641068,19.2378918 C18.3641068,19.2378918 18.2852228,19.4889739 18.1668968,19.627502 C18.0572287,19.767954 17.9725727,19.8805081 17.8350066,19.9343801 C17.6935926,19.9930621 17.7214906,19.9593921 17.7214906,19.9593921 L12.7450624,19.9593921 C12.7450624,19.9593921 12.5449664,19.8805081 12.4401083,19.70831 C12.3275543,19.5428459 12.4093243,19.598642 12.2996562,19.4639619 C12.2150002,19.3225478 12.0177901,18.9560257 11.2626198,18.4548235 C10.4814755,17.9468873 9.72341915,17.8968632 9.72341915,17.8968632 L0.000481000205,17.8968632 L2.1197679,14.6780099 L12.6065344,14.6780099 Z" id="Fill-11"></path>
                    <path d="M5.08147857,19.0689645 L5.08147857,34.9458193 C5.08147857,34.9458193 5.13823659,36.3493779 6.31283909,38.2493287 C7.4884036,40.1492795 9.19306832,41.0170039 9.19306832,41.0170039 L10.5350589,38.919843 C10.5350589,38.919843 9.3623804,38.2214307 8.46675801,36.8794401 C7.60095764,35.5384116 7.60095764,34.3878591 7.60095764,34.3878591 L7.60095764,19.0689645 L5.08147857,19.0689645 Z" id="Fill-14"></path>
                    <path d="M23.0907997,19.0125913 L23.0907997,34.3314859 C23.0907997,34.3314859 22.8964756,35.8706865 22.1692033,36.964481 C21.441931,38.0804015 20.2355824,38.9760238 20.2355824,38.9760238 L21.526587,41.0452867 C21.526587,41.0452867 23.4823338,39.6186401 24.4347142,38.1082995 C25.3822846,36.5979588 25.6131647,34.3314859 25.6131647,34.3314859 L25.6131647,19.0125913 L23.0907997,19.0125913 Z" id="Fill-16"></path>
                    <path d="M1.08792626,19.0689645 L1.08792626,35.0083493 C1.08792626,35.0083493 1.25146633,37.4710704 2.79066699,40.0415355 C4.33179165,42.6120006 7.12447884,44.4042074 7.12447884,44.4042074 L8.4414574,42.3080085 C8.4414574,42.3080085 6.65117464,41.355628 5.22549003,39.1738111 C3.76517341,36.9640962 3.68628937,34.9458193 3.68628937,34.9458193 L3.68628937,19.0689645 L1.08792626,19.0689645 Z" id="Fill-18"></path>
                    <path d="M12.6065344,20.7459237 L12.6065344,37.5790068 C12.6065344,37.5790068 12.5449664,37.6348029 12.5247643,37.882999 C12.4939803,38.1369671 12.3275543,38.3053171 12.3275543,38.3053171 L6.70754786,47.6174811 L23.9331272,47.6174811 L18.3111968,38.1081071 L18.1447707,37.6857889 L18.0880127,37.2403827 L18.0880127,20.7767077 L15.9918138,20.7767077 L15.9918138,37.860873 C15.9918138,37.860873 15.9918138,38.1081071 16.0755079,38.3053171 C16.1264939,38.5025272 16.2419339,38.8074814 16.2419339,38.8074814 L19.7060974,44.5121438 L10.9268817,44.5121438 L14.3400591,38.8353794 C14.3400591,38.8353794 14.4526132,38.6439413 14.5372692,38.3620752 C14.5930652,38.1081071 14.6161532,37.860873 14.6161532,37.860873 L14.6161532,20.7459237 L12.6065344,20.7459237 Z" id="Fill-20"></path>
                    <path d="M26.9773775,19.0125913 L26.9773775,34.67011 C26.9773775,34.67011 26.9552515,36.6826149 25.4699229,39.0048838 C23.9903662,41.3271528 22.2818535,42.3074313 22.2818535,42.3074313 L23.542074,44.4267182 C23.542074,44.4267182 26.1096531,42.8038235 27.7354338,40.2333584 C29.3275445,37.6628933 29.5247546,34.67011 29.5247546,34.67011 L29.5247546,19.0125913 L26.9773775,19.0125913 Z" id="Fill-22"></path>
                    <path d="M8.52274644,8.52553624 C8.52274644,8.52553624 7.66079407,3.80500022 11.1239955,1.44906122 C11.1239955,1.44906122 12.6910942,0.000288600123 15.2336613,0.000288600123 C17.9474645,0.000288600123 19.5116771,1.42308721 19.5116771,1.42308721 C23.2856047,4.18787639 22.1696843,8.52553624 22.1696843,8.52553624 L8.52274644,8.52553624 Z" id="Fill-24"></path>
                </g>
            </g>
        </g>
    </g>
</svg>